<svg width="25" height="24" viewBox="0 0 25 24" fill="none" xmlns="http://www.w3.org/2000/svg">
<g clip-path="url(#clip0_22002_29194)">
<path fill-rule="evenodd" clip-rule="evenodd" d="M12.5 0C5.875 0 0.5 5.375 0.5 12C0.5 18.625 5.875 24 12.5 24C19.112 24 24.5 18.625 24.5 12C24.5 5.375 19.112 0 12.5 0ZM20.426 5.531C21.858 7.275 22.717 9.501 22.743 11.909C22.405 11.844 19.021 11.154 15.61 11.583C15.532 11.414 15.467 11.232 15.389 11.05C15.181 10.555 14.946 10.048 14.712 9.566C18.487 8.03 20.205 5.818 20.426 5.531ZM13.918 8.043C12.239 4.959 10.378 2.433 10.092 2.043C10.86 1.861 11.667 1.77 12.5 1.77C15.103 1.77 17.485 2.746 19.294 4.347C19.112 4.607 17.563 6.677 13.918 8.043ZM8.14 2.733C8.413 3.097 10.235 5.635 11.94 8.655C7.15 9.93 2.92 9.905 2.465 9.905C3.129 6.729 5.277 4.087 8.14 2.733ZM2.244 11.7C2.686 11.713 7.658 11.778 12.773 10.243C13.073 10.815 13.346 11.401 13.606 11.987C13.476 12.026 13.333 12.065 13.202 12.104C7.918 13.809 5.107 18.469 4.872 18.859C3.245 17.05 2.243 14.642 2.243 12.013L2.244 11.7ZM14.257 13.692C14.283 13.679 14.296 13.679 14.322 13.666C15.767 17.401 16.353 20.538 16.509 21.436C15.272 21.97 13.919 22.256 12.5 22.256C10.131 22.256 7.945 21.449 6.214 20.096C6.396 19.718 8.478 15.709 14.257 13.692ZM18.214 20.499C18.11 19.874 17.563 16.881 16.223 13.197C19.438 12.69 22.249 13.523 22.6 13.64C22.157 16.49 20.518 18.95 18.214 20.499Z" fill="#F7F7F7"/>
</g>
<defs>
<clipPath id="clip0_22002_29194">
<rect width="24" height="24" fill="white" transform="translate(0.5)"/>
</clipPath>
</defs>
</svg>
