<svg width="25" height="24" viewBox="0 0 25 24" fill="none" xmlns="http://www.w3.org/2000/svg">
<g clip-path="url(#clip0_22002_29195)">
<path d="M10.0789 9.57315C10.0789 8.62515 9.34494 8.40015 8.52994 8.40015H6.40894V10.8001H8.69594C9.50494 10.8001 10.0789 10.4461 10.0789 9.57315Z" fill="#F7F7F7"/>
<path d="M17.166 10.8162C16.186 10.8162 15.532 11.4272 15.468 12.4072H18.8C18.709 11.4162 18.195 10.8162 17.166 10.8162Z" fill="#F7F7F7"/>
<path d="M8.86805 12.509H6.40405V15.343H8.82005C9.74205 15.343 10.4921 15.016 10.4921 13.982C10.4911 12.927 9.86405 12.514 8.86805 12.509Z" fill="#F7F7F7"/>
<path d="M20.25 0.300049H4.75C2.4 0.300049 0.5 2.20005 0.5 4.55005V19.4501C0.5 21.8001 2.4 23.7001 4.75 23.7001H20.25C22.6 23.7001 24.5 21.8001 24.5 19.4501V4.55005C24.5 2.20005 22.6 0.300049 20.25 0.300049ZM15.055 7.18405H19.223V8.19605H15.055V7.18405ZM9.13 17.1H4.143V6.81405H8.991C10.754 6.81405 12.28 7.31205 12.28 9.35805C12.28 10.392 11.798 10.901 10.876 11.34C12.14 11.699 12.751 12.814 12.751 14.105C12.752 16.195 11 17.0891 9.13 17.1ZM20.841 13.698H15.473C15.473 14.887 16.1 15.589 17.3 15.589C17.921 15.589 18.72 15.257 18.918 14.619H20.723C20.166 16.328 19.014 17.126 17.236 17.126C14.89 17.126 13.427 15.535 13.427 13.215C13.427 10.976 14.965 9.27305 17.236 9.27305C19.566 9.27305 20.857 11.11 20.857 13.312C20.857 13.441 20.846 13.575 20.841 13.698Z" fill="#F7F7F7"/>
</g>
<defs>
<clipPath id="clip0_22002_29195">
<rect width="24" height="24" fill="white" transform="translate(0.5)"/>
</clipPath>
</defs>
</svg>
