<svg width="25" height="24" viewBox="0 0 25 24" fill="none" xmlns="http://www.w3.org/2000/svg">
<g clip-path="url(#clip0_22002_29192)">
<path d="M24.5 12.073C24.5 18.062 20.106 23.027 14.37 23.928V15.565H17.159L17.69 12.105H14.37V9.86C14.37 8.913 14.834 7.991 16.32 7.991H17.829V5.045C17.829 5.045 16.459 4.811 15.15 4.811C12.416 4.811 10.63 6.468 10.63 9.467V12.104H7.591V15.564H10.63V23.927C4.895 23.025 0.5 18.061 0.5 12.073C0.5 5.446 5.873 0.072998 12.5 0.072998C19.127 0.072998 24.5 5.445 24.5 12.073Z" fill="#F7F7F7"/>
</g>
<defs>
<clipPath id="clip0_22002_29192">
<rect width="24" height="24" fill="white" transform="translate(0.5)"/>
</clipPath>
</defs>
</svg>
