<svg width="25" height="24" viewBox="0 0 25 24" fill="none" xmlns="http://www.w3.org/2000/svg">
<g clip-path="url(#clip0_22002_29196)">
<path fill-rule="evenodd" clip-rule="evenodd" d="M12.5 0.295898C5.873 0.295898 0.5 5.6679 0.5 12.2959C0.5 17.5979 3.938 22.0959 8.706 23.6829C9.306 23.7939 9.526 23.4229 9.526 23.1059C9.526 22.8199 9.515 21.8749 9.51 20.8719C6.172 21.5979 5.467 19.4559 5.467 19.4559C4.921 18.0689 4.135 17.6999 4.135 17.6999C3.046 16.9549 4.217 16.9709 4.217 16.9709C5.422 17.0559 6.056 18.2079 6.056 18.2079C7.126 20.0419 8.863 19.5119 9.548 19.2049C9.656 18.4289 9.967 17.8999 10.31 17.5999C7.645 17.2969 4.843 16.2679 4.843 11.6699C4.843 10.3599 5.312 9.2889 6.08 8.4489C5.955 8.1459 5.544 6.9259 6.196 5.2729C6.196 5.2729 7.204 4.9509 9.497 6.5029C10.454 6.2369 11.48 6.1039 12.5 6.0989C13.52 6.1039 14.547 6.2369 15.506 6.5029C17.796 4.9499 18.803 5.2729 18.803 5.2729C19.456 6.9259 19.045 8.1459 18.921 8.4489C19.69 9.2889 20.156 10.3599 20.156 11.6699C20.156 16.2789 17.349 17.2939 14.677 17.5909C15.107 17.9629 15.491 18.6939 15.491 19.8129C15.491 21.4189 15.477 22.7109 15.477 23.1059C15.477 23.4249 15.693 23.7999 16.301 23.6819C21.067 22.0929 24.501 17.5969 24.501 12.2969C24.5 5.6689 19.127 0.295898 12.5 0.295898Z" fill="#525F68"/>
<path d="M5.04503 17.5259C5.01903 17.5859 4.92503 17.6039 4.83903 17.5629C4.75203 17.5239 4.70303 17.4419 4.73103 17.3829C4.75703 17.3219 4.85103 17.3049 4.93803 17.3459C5.02503 17.3839 5.07503 17.4659 5.04503 17.5259Z" fill="#525F68"/>
<path d="M5.53109 18.0679C5.47409 18.1209 5.36209 18.0959 5.28609 18.0129C5.20709 17.9289 5.19309 17.8169 5.25109 17.7639C5.31009 17.7109 5.41809 17.7359 5.49709 17.8199C5.57609 17.9029 5.59109 18.0139 5.53109 18.0679Z" fill="#525F68"/>
<path d="M6.00392 18.759C5.92992 18.81 5.80992 18.762 5.73592 18.656C5.66192 18.549 5.66192 18.421 5.73792 18.37C5.81192 18.319 5.93092 18.365 6.00592 18.471C6.07892 18.579 6.07892 18.707 6.00392 18.759Z" fill="#525F68"/>
<path d="M6.65195 19.4268C6.58595 19.4998 6.44595 19.4798 6.34395 19.3808C6.23895 19.2838 6.20995 19.1468 6.27595 19.0738C6.34295 19.0008 6.48395 19.0218 6.58695 19.1198C6.69095 19.2168 6.72195 19.3548 6.65195 19.4268Z" fill="#151A2D"/>
<path d="M7.54707 19.814C7.51807 19.908 7.38307 19.951 7.24707 19.911C7.11107 19.87 7.02207 19.76 7.05007 19.665C7.07807 19.57 7.21407 19.526 7.35107 19.569C7.48607 19.609 7.57507 19.719 7.54707 19.814Z" fill="#151A2D"/>
<path d="M8.52894 19.886C8.53194 19.985 8.41694 20.067 8.27394 20.069C8.13094 20.072 8.01394 19.992 8.01294 19.895C8.01294 19.795 8.12594 19.714 8.26894 19.711C8.41194 19.708 8.52894 19.788 8.52894 19.886Z" fill="#151A2D"/>
<path d="M9.44302 19.7308C9.46002 19.8268 9.36102 19.9268 9.21902 19.9528C9.08002 19.9788 8.95102 19.9188 8.93302 19.8228C8.91602 19.7238 9.01702 19.6248 9.15602 19.5988C9.29702 19.5738 9.42502 19.6318 9.44302 19.7308Z" fill="#151A2D"/>
</g>
<defs>
<clipPath id="clip0_22002_29196">
<rect width="24" height="24" fill="white" transform="translate(0.5)"/>
</clipPath>
</defs>
</svg>
